HIERARCHY
ROOT Hips
{
  OFFSET 3.13124 94.3669 -3.18751
  CHANNELS  6 Xposition Yposition Zposition Zrotation Xrotation Yrotation
  JOINT LeftUpLeg
  {
    OFFSET 8.64259 1.95398 -2.38835
    CHANNELS 3 Zrotation Xrotation Yrotation
    JOINT LeftLeg
    {
      OFFSET 43.7702 0 0
      CHANNELS 3 Zrotation Xrotation Yrotation
      JOINT LeftFoot
      {
        OFFSET 40.6238 0 0
        CHANNELS 3 Zrotation Xrotation Yrotation
        JOINT LeftToeBase
        {
          OFFSET 12.7242 0 0
          CHANNELS 3 Zrotation Xrotation Yrotation
          End Site
          {
            OFFSET 0 0 0
          }
        }
      }
    }
  }
  JOINT RightUpLeg
  {
    OFFSET -8.2249 1.95398 -2.59336
    CHANNELS 3 Zrotation Xrotation Yrotation
    JOINT RightLeg
    {
      OFFSET 43.5653 0 0
      CHANNELS 3 Zrotation Xrotation Yrotation
      JOINT RightFoot
      {
        OFFSET 40.6238 0 0
        CHANNELS 3 Zrotation Xrotation Yrotation
        JOINT RightToeBase
        {
          OFFSET 12.7242 0 0
          CHANNELS 3 Zrotation Xrotation Yrotation
          End Site
          {
            OFFSET 0 0 0
          }
        }
      }
    }
  }
  JOINT Spine
  {
    OFFSET 0.165834 0.87714 6.61349
    CHANNELS 3 Zrotation Xrotation Yrotation
    JOINT Spine1
    {
      OFFSET 7.38962 1.71661e-005 0
      CHANNELS 3 Zrotation Xrotation Yrotation
      JOINT Spine2
      {
        OFFSET 11.9445 1.14441e-005 0
        CHANNELS 3 Zrotation Xrotation Yrotation
        JOINT Spine3
        {
          OFFSET 14.7254 4.19617e-005 0
          CHANNELS 3 Zrotation Xrotation Yrotation
          JOINT Spine4
          {
            OFFSET 10.9679 0 0
            CHANNELS 3 Zrotation Xrotation Yrotation
            JOINT RightShoulder
            {
              OFFSET 2.46616 -1.6653 3.69651
              CHANNELS 3 Zrotation Xrotation Yrotation
              JOINT RightArm
              {
                OFFSET 13.0012 0 0
                CHANNELS 3 Zrotation Xrotation Yrotation
                JOINT RightForeArm
                {
                  OFFSET 28.7848 1.52588e-005 0
                  CHANNELS 3 Zrotation Xrotation Yrotation
                  JOINT RightHand
                  {
                    OFFSET 26.5688 1.52588e-005 0
                    CHANNELS 3 Zrotation Xrotation Yrotation
                    End Site
                    {
                      OFFSET 0 0 0
                    }
                  }
                }
              }
            }
            JOINT LeftShoulder
            {
              OFFSET 2.38034 -1.29275 -3.75231
              CHANNELS 3 Zrotation Xrotation Yrotation
              JOINT LeftArm
              {
                OFFSET 16.3182 6.10352e-005 0
                CHANNELS 3 Zrotation Xrotation Yrotation
                JOINT LeftForeArm
                {
                  OFFSET 27.0901 0 0
                  CHANNELS 3 Zrotation Xrotation Yrotation
                  JOINT LeftHand
                  {
                    OFFSET 24.5451 1.52588e-005 0
                    CHANNELS 3 Zrotation Xrotation Yrotation
                    End Site
                    {
                      OFFSET 0 0 0
                    }
                  }
                }
              }
            }
            JOINT Neck
            {
              OFFSET 5.0226 -0.0266342 0
              CHANNELS 3 Zrotation Xrotation Yrotation
              JOINT Head
              {
                OFFSET 6.69363 2.86102e-005 0
                CHANNELS 3 Zrotation Xrotation Yrotation
                End Site
                {
                  OFFSET 0 0 0
                }
              }
            }
          }
        }
      }
    }
  }
}
MOTION
Frames:	12
Frame Time:	0.0333333
10.0327 104.613 -122.309 -89.9745 -6.5867 -87.1253 -175.303 15.0691 101.417 -3.93933 -18.7107 3.60336 8.23918 -4.16706 -9.15776 28.7808 7.02693e-006 4.47834e-006 -178.403 16.5839 100 -18.4212 -13.6939 -0.850159 8.65152 1.46978 5.10337 28.7808 1.55393e-005 3.2275e-005 1.45988 5.98697 -92.5024 14.7641 1.37987 1.31527 3.09326 1.43641 1.25325 -19.4396 0.920839 1.66911 0.573047 0.92083 1.6691 106.738 -25.3228 -71.9583 12.1011 35.6194 1.74227 -2.57095 -0.0884822 -20.0274 -5.37983 -0.320012 -0.0162419 -76.4829 -35.8696 99.4632 3.06345 -36.9782 -2.83666 26.7171 44.0019 -29.7957 -1.41121 -0.193865 -16.4739 -14.9572 3.7128 0.24675 -5.74228 3.65702 2.75969 
8.64465 104.686 -121.953 -90.3798 3.57543 -86.6843 -175.63 15.2577 100.384 -3.96922 -15.7713 3.65419 9.23285 -3.4749 -7.90505 28.7808 7.02693e-006 4.47834e-006 -178.418 15.3367 100.03 -18.9372 -14.1631 -0.873541 10.2562 1.48062 4.96083 28.7808 1.55393e-005 3.2275e-005 1.57584 6.01041 -92.5434 14.6997 1.57288 1.41108 3.029 1.63346 1.34049 -19.5041 1.07612 1.81849 0.508534 1.07615 1.81849 106.116 -26.3805 -73.4811 15.56 36.1925 2.1066 -3.75653 0.105031 -20.402 -5.37983 -0.320012 -0.0162419 -76.247 -37.1016 99.8497 0.786481 -37.2269 -2.34907 25.9708 41.2714 -29.2383 0.613043 -0.43481 -17.5779 -13.6513 6.72728 -0.623263 -6.44053 6.59448 5.23104 
7.29381 104.818 -121.601 -90.6475 14.3128 -87.7764 -175.657 15.2966 99.6466 -4.14303 -14.9501 3.21343 9.22105 -3.66833 -8.2029 28.7808 7.02693e-006 4.47834e-006 -178.437 14.0704 99.8672 -19.0378 -14.6196 -0.897006 10.9736 1.38943 4.75221 28.7808 1.55393e-005 3.2275e-005 1.64623 5.98744 -92.5056 14.734 1.75005 1.51915 3.06342 1.81521 1.44066 -19.4698 1.21263 1.97479 0.542853 1.21264 1.97478 105.747 -26.3927 -74.2835 21.0834 36.1018 2.10995 -4.96635 0.315633 -21.7321 -5.37983 -0.320012 -0.0162419 -75.7005 -37.4463 100.808 -2.40656 -37.7686 -2.26035 27.013 39.9042 -29.0937 -0.605631 -0.327488 -19.6232 -12.3546 10.0658 -2.56682 -7.89537 9.78599 8.61562 
5.98673 104.801 -121.276 -90.3746 25.5287 -88.131 -175.459 15.4051 98.9763 -4.72764 -10.8272 2.85777 9.82295 -5.24283 -10.4671 28.7808 7.02693e-006 4.47834e-006 -178.509 13.1364 99.3378 -18.7848 -12.9077 -0.78307 14.8301 2.36313 5.65099 28.7808 1.55393e-005 3.2275e-005 1.72659 5.88875 -92.461 14.9198 1.95609 1.57046 3.24944 2.02332 1.48283 -19.2849 1.39378 2.08565 0.727748 1.39378 2.08564 103.868 -28.5573 -78.4911 21.6996 36.2 4.55443 -5.55132 0.387886 -20.5952 -5.37983 -0.320012 -0.0162419 -74.9998 -37.8349 102.025 -5.56558 -38.2794 -2.33021 28.2506 39.3955 -29.4931 0.113916 -0.37408 -17.4207 -11.7063 13.6159 -4.39539 -8.96521 13.1571 12.1704 
4.65844 105.041 -121.012 -89.9732 36.6779 -88.6232 -175.291 15.1657 98.1558 -5.30502 -6.67175 2.30794 10.5448 -5.27456 -10.346 28.7808 7.02693e-006 4.47834e-006 -178.629 12.8916 99.259 -19.3006 -9.30633 -0.596284 13.6523 -0.348097 1.94541 28.7808 1.55393e-005 3.2275e-005 1.77515 5.80624 -92.5536 15.0732 2.05829 1.58504 3.40301 2.12604 1.49291 -19.1321 1.48687 2.13028 0.880576 1.48687 2.13027 102.985 -29.0548 -80.3559 25.5416 35.4325 4.59537 -6.28228 0.489454 -19.611 -5.37983 -0.320012 -0.0162419 -73.8646 -39.05 103.921 -7.756 -38.2276 -2.82685 29.0377 39.4733 -30.127 1.76286 -0.476254 -14.9955 -10.9091 17.1111 -5.53626 -10.0637 16.4564 14.9842 
3.2208 105.179 -120.713 -88.6889 48.45 -89.8238 -175.215 14.873 97.2492 -5.60831 -3.80115 2.01151 11.4859 -7.30511 -13.0949 28.7808 7.02693e-006 4.47834e-006 -178.902 12.8433 98.7277 -19.2377 -11.0847 -0.705065 12.8481 -1.51023 0.34241 28.7808 1.55393e-005 3.2275e-005 1.78867 5.68428 -92.5332 15.3179 2.13434 1.65815 3.64779 2.20522 1.56259 -18.8871 1.53745 2.22284 1.12553 1.53744 2.22283 101.856 -31.0765 -82.6874 28.029 34.8858 4.29357 -6.1025 0.364903 -17.3927 -5.37983 -0.320012 -0.0162419 -71.9368 -39.767 107.167 -10.2849 -37.6296 -4.42844 35.2917 45.7646 -33.832 2.51124 -0.506128 -14.0928 -9.82071 20.346 -8.38794 -11.4929 19.4259 18.9855 
1.72879 105.275 -120.507 -86.9006 59.9857 -92.9698 -175.175 14.3484 94.6521 -5.81587 0.823283 1.78248 12.2232 -6.90983 -12.3287 28.7808 7.02693e-006 4.47834e-006 -178.456 7.86495 97.6833 -12.6956 -22.3202 -1.34269 9.05918 -12.6585 -16.8106 28.7808 1.55393e-005 3.2275e-005 1.4949 5.64828 -91.3231 15.4804 2.19744 1.48813 3.8106 2.26079 1.38995 -18.727 1.6487 2.07971 1.2856 1.64869 2.0797 100.845 -30.2536 -84.761 31.9793 34.8751 4.24939 -6.96444 0.396988 -16.6534 -5.37983 -0.320012 -0.0162419 -70.4017 -41.1309 109.579 -12.8827 -37.1576 -5.1599 34.4395 45.1995 -33.4542 10.4474 -1.20955 -14.2733 -8.73788 22.0512 -7.97932 -11.3179 21.1498 19.6057 
0.197966 104.989 -120.399 -85.3983 71.6567 -96.3372 -174.637 13.5365 91.7695 -7.07916 6.26855 1.23511 11.5189 -6.0664 -11.3075 28.7808 7.02693e-006 4.47834e-006 -178.155 1.45145 95.043 -4.48549 -29.0983 -1.62394 9.21432 -20.2066 -28.7246 28.7808 1.55393e-005 3.2275e-005 1.02336 5.61473 -89.2434 15.6001 2.15994 1.53849 3.93014 2.22556 1.44191 -18.6065 1.59782 2.11645 1.40612 1.59781 2.11644 99.4539 -33.2232 -87.3499 32.7621 34.8128 4.67605 -7.42178 0.49035 -16.571 -5.37983 -0.320012 -0.0162419 -69.5438 -40.4761 111.129 -15.0908 -36.5512 -4.68521 33.5167 44.407 -32.7562 15.5783 -1.96546 -16.2278 -7.66906 22.4593 -11.1308 -10.8122 21.8139 20.9251 
-1.38753 105.286 -120.385 -80.7848 83.6199 -101.229 -174.28 12.7799 90.3159 -9.28636 11.9849 0.743287 12.0672 -2.63406 -6.25808 28.7808 7.02693e-006 4.47834e-006 -178.852 0.472935 93.3229 -4.05749 -35.3783 -2.00292 10.4192 -19.2532 -26.6875 28.7808 1.55393e-005 3.2275e-005 0.966511 5.68386 -88.7752 15.5004 2.22262 1.41425 3.83067 2.28271 1.31503 -18.7081 1.6949 2.01684 1.30452 1.6949 2.01683 98.7657 -34.4437 -88.5662 34.0704 34.9674 4.77164 -7.67155 0.517087 -17.0205 -5.37983 -0.320012 -0.0162419 -68.9335 -40.7151 112.115 -17.4519 -35.6396 -4.75936 35.3031 45.7408 -34.3942 17.5753 -1.65873 -13.2684 -5.65343 20.868 -11.7117 -9.22628 20.7622 18.9981 
-2.97022 105.567 -120.409 75.7064 83.8289 102.512 -174.443 12.4354 89.5602 -10.1612 15.82 0.938376 10.8972 1.3522 -0.532158 28.7808 7.02693e-006 4.47834e-006 -179.536 1.53084 92.1357 -4.30994 -42.3428 -2.48782 9.25917 -17.1578 -24.0604 28.7808 1.55393e-005 3.2275e-005 0.963345 5.61968 -88.7671 15.635 2.26681 1.28594 3.96544 2.32121 1.1849 -18.5753 1.7756 1.90779 1.43737 1.77559 1.9078 98.938 -35.05 -88.1781 35.4124 33.9448 4.11275 -6.39866 0.283911 -17.262 -5.37983 -0.320012 -0.0162419 -68.6336 -40.8547 112.592 -19.1512 -34.4533 -4.35224 34.7163 46.6944 -33.9239 19.8532 -1.48214 -11.4445 -4.46909 18.3465 -10.0364 -6.37432 18.7827 13.4909 
-4.59479 105.714 -120.555 83.4338 71.2249 94.9228 -174.289 12.2015 89.7181 -10.5519 14.1775 0.872556 11.9134 -0.318529 -2.93692 28.7808 7.02693e-006 4.47834e-006 179.894 3.09582 91.0078 -4.63241 -49.0974 -3.04185 9.782 -14.5387 -19.8903 28.7808 1.55393e-005 3.2275e-005 0.908304 5.61119 -88.7668 15.6581 2.20864 1.10603 3.98862 2.25519 1.00771 -18.5533 1.77415 1.71875 1.45933 1.77416 1.71874 99.2802 -35.1703 -87.5177 36.6464 31.7142 2.31934 -5.00985 0.117887 -16.8407 -5.37983 -0.320012 -0.0162419 -67.7359 -41.4776 113.967 -20.1817 -33.3782 -3.91284 32.6431 45.6765 -32.9319 22.9545 -1.54974 -10.8204 -2.4397 15.2392 -7.58907 -5.44826 15.8074 7.34752 
-6.13631 105.718 -120.652 85.0193 58.8026 93.8954 -173.831 12.2149 90.9323 -11.2372 9.40517 0.534042 11.9348 -4.65441 -9.23102 28.7808 7.02693e-006 4.47834e-006 179.748 4.87925 90.7473 -5.20676 -57.0137 -3.88057 10.7697 -12.7104 -16.8215 28.7808 1.55393e-005 3.2275e-005 0.812896 5.64522 -88.9103 15.5928 2.02172 0.843759 3.92318 2.05691 0.753931 -18.6191 1.67468 1.41245 1.39357 1.67469 1.41245 99.9562 -34.422 -86.2864 39.3046 30.1568 -0.429116 -5.21369 0.198723 -16.7984 -5.37983 -0.320012 -0.0162419 -67.3174 -42.8737 114.366 -19.7815 -33.2925 -2.58131 40.2486 51.5534 -38.2994 18.0023 -0.534835 -6.93174 -0.289259 11.9149 -3.27834 -5.33821 12.2389 0.417141 
